<?xml version="1.0" encoding="UTF-8"?>
<svg xmlns="http://www.w3.org/2000/svg" viewBox="0 0 64 64" width="64" height="64" aria-labelledby="title desc" role="img">
  <title>Lets Chat Favicon</title>
  <desc>Minimal chat bubble with three dots representing conversation for the Lets Chat app</desc>
  <defs>
    <linearGradient id="g" x1="0" y1="0" x2="1" y2="1">
      <stop offset="0%" stop-color="#6EE7F9"/>
      <stop offset="100%" stop-color="#A78BFA"/>
    </linearGradient>
    <filter id="shadow" x="-50%" y="-50%" width="200%" height="200%">
      <feDropShadow dx="0" dy="1.2" stdDeviation="1.2" flood-opacity="0.25"/>
    </filter>
  </defs>

  <!-- Background shape: rounded chat bubble with tail -->
  <path filter="url(#shadow)"
        d="M16 10h32a10 10 0 0 1 10 10v16a10 10 0 0 1-10 10H30.5a3 3 0 0 0-2.12.88L17 58v-9.5A1.5 1.5 0 0 0 15.5 47H16a10 10 0 0 1-10-10V20A10 10 0 0 1 16 10Z"
        fill="url(#g)"/>
  
  <!-- Dots (message typing indicator) -->
  <g transform="translate(0,0)">
    <circle cx="26" cy="30" r="3.4" fill="#FFFFFF"/>
    <circle cx="32" cy="30" r="3.4" fill="#FFFFFF"/>
    <circle cx="38" cy="30" r="3.4" fill="#FFFFFF"/>
  </g>
  
  <!-- Optional subtle gloss -->
  <path d="M18 14h28a8 8 0 0 1 8 8v1c-10-2-20-2-30 2s-14 6-16 7v-10a8 8 0 0 1 8-8Z"
        fill="#FFFFFF" opacity="0.06"/>
</svg>
